<?xml version="1.0" encoding="UTF-8"?>
<svg version="1.1" xmlns="http://www.w3.org/2000/svg" width="100" height="100">
<path d="M0 0 C1.32451172 0.42925781 1.32451172 0.42925781 2.67578125 0.8671875 C4.79147547 1.55816073 6.89814207 2.26824205 9 3 C9.33 2.01 9.66 1.02 10 0 C13 1 13 1 14 3 C14.66 3 15.32 3 16 3 C15.67 4.98 15.34 6.96 15 9 C15.99 9.495 15.99 9.495 17 10 C17 8.68 17 7.36 17 6 C17.99 6 18.98 6 20 6 C20.495 6.99 20.495 6.99 21 8 C22.32 8 23.64 8 25 8 C24.67 10.31 24.34 12.62 24 15 C22.515 15.495 22.515 15.495 21 16 C22.485 16.495 22.485 16.495 24 17 C24.84375 18.75 24.84375 18.75 25.5 21 C25.74492188 21.81082031 25.98984375 22.62164063 26.2421875 23.45703125 C26.49226563 24.29621094 26.74234375 25.13539062 27 26 C27.77567533 28.25684585 28.5626417 30.5094771 29.3515625 32.76171875 C33.25587942 46.23866813 31.18563937 60.21796508 24.6171875 72.4609375 C16.86035406 84.63954072 5.0243095 93.41463438 -9.1640625 96.59765625 C-25.1787716 98.86971553 -38.21451702 94.80476769 -51.1484375 85.4453125 C-60.95258602 77.59448093 -67.34082095 65.38123235 -69 53 C-70.06119456 37.28615747 -66.27138409 24.47469117 -56.26953125 12.39453125 C-41.63175601 -3.04945536 -19.72288059 -6.78834029 0 0 Z " fill="#F23232" transform="translate(69,3)"/>
<path d="M0 0 C6.6 0 13.2 0 20 0 C20 7.92 20 15.84 20 24 C27.59 24 35.18 24 43 24 C43 30.27 43 36.54 43 43 C35.41 43 27.82 43 20 43 C20 50.92 20 58.84 20 67 C13.4 67 6.8 67 0 67 C0 59.08 0 51.16 0 43 C-7.92 43 -15.84 43 -24 43 C-24 36.73 -24 30.46 -24 24 C-16.08 24 -8.16 24 0 24 C0 16.08 0 8.16 0 0 Z " fill="#FEFBFB" transform="translate(40,16)"/>
<path d="M0 0 C3 1 3 1 4 3 C4.66 3 5.32 3 6 3 C5.67 4.98 5.34 6.96 5 9 C5.66 9.33 6.32 9.66 7 10 C7 8.68 7 7.36 7 6 C7.99 6 8.98 6 10 6 C10.33 6.66 10.66 7.32 11 8 C12.32 8 13.64 8 15 8 C14.67 10.31 14.34 12.62 14 15 C13.01 15.33 12.02 15.66 11 16 C11.99 16.33 12.98 16.66 14 17 C14 19.31 14 21.62 14 24 C12.68 23.67 11.36 23.34 10 23 C10 23.99 10 24.98 10 26 C9.01 25.67 8.02 25.34 7 25 C6.29788106 23.34795544 5.63028587 21.68076231 5 20 C4.34 19.67 3.68 19.34 3 19 C3.55728913 22.34373475 4.35173889 25.03312999 6 28 C5.01 28 4.02 28 3 28 C2.67 28.99 2.34 29.98 2 31 C1.34 31 0.68 31 0 31 C-0.33 30.01 -0.66 29.02 -1 28 C-1.99 28 -2.98 28 -4 28 C-3.690625 27.443125 -3.38125 26.88625 -3.0625 26.3125 C-1.94238179 23.87459567 -1.43962636 21.63775814 -1 19 C-4.32901247 21.21934164 -4.75023244 22.34683329 -6 26 C-6.66 26 -7.32 26 -8 26 C-8.33 25.34 -8.66 24.68 -9 24 C-9.99 24 -10.98 24 -12 24 C-11.67 21.69 -11.34 19.38 -11 17 C-8.03 17 -5.06 17 -2 17 C-2 16.34 -2 15.68 -2 15 C-4.97 15 -7.94 15 -11 15 C-11.33 12.69 -11.66 10.38 -12 8 C-11.01 8 -10.02 8 -9 8 C-8.67 7.34 -8.34 6.68 -8 6 C-7.01 6.33 -6.02 6.66 -5 7 C-4.65657551 8.33076989 -4.32380126 9.66431979 -4 11 C-3.01 11.66 -2.02 12.32 -1 13 C-0.67 11.35 -0.34 9.7 0 8 C-1.32 7.34 -2.64 6.68 -4 6 C-3.67 5.01 -3.34 4.02 -3 3 C-2.34 3 -1.68 3 -1 3 C-0.67 2.01 -0.34 1.02 0 0 Z " fill="#FCE3E3" transform="translate(79,3)"/>
<path d="M0 0 C0.33 0.66 0.66 1.32 1 2 C1.99 2.33 2.98 2.66 4 3 C4 5.31 4 7.62 4 10 C2.68 9.67 1.36 9.34 0 9 C0 9.99 0 10.98 0 12 C-0.99 11.67 -1.98 11.34 -3 11 C-3.33 8.36 -3.66 5.72 -4 3 C-4.66 3 -5.32 3 -6 3 C-6 2.34 -6 1.68 -6 1 C-4 0 -4 0 0 0 Z " fill="#FBDEDE" transform="translate(89,17)"/>
<path d="M0 0 C0.99 0 1.98 0 3 0 C3.33 0.66 3.66 1.32 4 2 C5.32 2 6.64 2 8 2 C7.67 4.31 7.34 6.62 7 9 C4.03 8.67 1.06 8.34 -2 8 C-1.34 5.36 -0.68 2.72 0 0 Z " fill="#FCFAFA" transform="translate(86,9)"/>
<path d="M0 0 C0.33 1.32 0.66 2.64 1 4 C-1.31 3.67 -3.62 3.34 -6 3 C-6 2.34 -6 1.68 -6 1 C-4 0 -4 0 0 0 Z " fill="#F23F40" transform="translate(89,17)"/>
<path d="M0 0 C0.99 0.33 1.98 0.66 3 1 C1.93453047 3.13093906 0.70840281 4.36587557 -1 6 C-1.99 5.34 -2.98 4.68 -4 4 C-4 3.34 -4 2.68 -4 2 C-3.01 2 -2.02 2 -1 2 C-0.67 1.34 -0.34 0.68 0 0 Z " fill="#FAD8D8" transform="translate(71,9)"/>
</svg>
